<svg width="430" height="134" viewBox="0 0 430 134" fill="none" xmlns="http://www.w3.org/2000/svg">
<g clip-path="url(#clip0_15_182)">
<rect x="375.5" y="-3" width="125" height="125" rx="10" transform="rotate(30 375.5 -3)" fill="#EB4639"/>
<path d="M108.904 16.858C113.22 14.6591 117.828 19.2673 115.629 23.583L95.4034 63.2786C94.42 65.2086 94.7913 67.5524 96.3229 69.084L127.826 100.587C131.25 104.012 128.292 109.818 123.508 109.061L79.505 102.091C77.3655 101.752 75.2512 102.83 74.2678 104.76L54.0419 144.455C51.8429 148.771 45.4061 147.751 44.6484 142.967L37.679 98.9646C37.3402 96.8252 35.6622 95.1472 33.5228 94.8083L-10.4801 87.839C-15.2641 87.0813 -16.2836 80.6445 -11.9679 78.4455L27.7277 58.2196C29.6577 57.2362 30.735 55.1219 30.3962 52.9824L23.4268 8.97956C22.6691 4.19558 28.4758 1.23692 31.9008 4.66187L63.4033 36.1644C64.935 37.6961 67.2788 38.0673 69.2088 37.0839L108.904 16.858Z" fill="#FBBC04"/>
</g>
<defs>
<clipPath id="clip0_15_182">
<rect width="431" height="134" fill="white"/>
</clipPath>
</defs>
</svg>
