<svg width="430" height="131" viewBox="0 0 430 131" fill="none" xmlns="http://www.w3.org/2000/svg">
<g clip-path="url(#clip0_15_182)">
<rect x="375.5" y="-3" width="125" height="125" rx="10" transform="rotate(30 375.5 -3)" fill="#EB4639"/>
<path d="M108.904 11.858C113.22 9.65908 117.828 14.2673 115.629 18.583L95.4034 58.2786C94.42 60.2086 94.7913 62.5524 96.3229 64.084L127.826 95.5866C131.25 99.0116 128.292 104.818 123.508 104.061L79.505 97.0912C77.3655 96.7524 75.2512 97.8297 74.2678 99.7597L54.0419 139.455C51.8429 143.771 45.4061 142.751 44.6484 137.967L37.679 93.9646C37.3402 91.8252 35.6622 90.1472 33.5228 89.8083L-10.4801 82.839C-15.2641 82.0813 -16.2836 75.6445 -11.9679 73.4455L27.7277 53.2196C29.6577 52.2362 30.735 50.1219 30.3962 47.9824L23.4268 3.97956C22.6691 -0.80442 28.4758 -3.76308 31.9008 -0.338131L63.4033 31.1644C64.935 32.6961 67.2788 33.0673 69.2088 32.0839L108.904 11.858Z" fill="#FBBC04"/>
</g>
<defs>
<clipPath id="clip0_15_182">
<rect width="431" height="131" fill="white"/>
</clipPath>
</defs>
</svg>
