<svg width="430" height="112" viewBox="0 0 430 112" fill="none" xmlns="http://www.w3.org/2000/svg">
<g clip-path="url(#clip0_77_231)">
<rect x="400.5" width="125" height="125" rx="10" transform="rotate(30 400.5 0)" fill="#EB4639"/>
<path d="M70.7188 31.6979C75.4565 30.6909 78.7151 36.3348 75.474 39.9343L49.3095 68.993C47.8601 70.6027 47.612 72.9627 48.6951 74.8386L68.2463 108.702C70.6681 112.897 66.3073 117.74 61.8824 115.77L26.1607 99.8656C24.1819 98.9845 21.8608 99.4779 20.4113 101.088L-5.7532 130.146C-8.99421 133.746 -14.9478 131.095 -14.4415 126.278L-10.3542 87.3899C-10.1278 85.2357 -11.3143 83.1806 -13.2932 82.2996L-49.0149 66.3952C-53.4397 64.4252 -52.7585 57.9438 -48.0207 56.9368L-9.77294 48.807C-7.65414 48.3566 -6.06631 46.5931 -5.83989 44.4389L-1.75259 5.5508C-1.24629 0.733718 5.12834 -0.621248 7.55015 3.57345L27.1013 37.437C28.1843 39.3129 30.3522 40.2781 32.471 39.8277L70.7188 31.6979Z" fill="#FBBC04"/>
<circle cx="162.5" cy="81.5" r="62.5" fill="#4285F4"/>
<path d="M242.312 18.6266C239.618 13.9599 242.986 8.12659 248.374 8.12659L332.379 8.12659C337.767 8.12659 341.135 13.9599 338.441 18.6266L296.439 91.3766C293.744 96.0432 287.009 96.0433 284.314 91.3766L242.312 18.6266Z" fill="#0F9D58"/>
</g>
<defs>
<clipPath id="clip0_77_231">
<rect width="431" height="112" fill="white"/>
</clipPath>
</defs>
</svg>
